<svg width="36" height="42" viewBox="0 0 36 42" fill="none" xmlns="http://www.w3.org/2000/svg">
<g filter="url(#filter0_d_104_2681)">
<rect y="6" width="30" height="30" rx="15" fill="url(#paint0_linear_104_2681)"/>
<path d="M13.5883 23.25H18.018C18.2289 22.9922 18.5102 22.8633 18.8617 22.8633C19.1664 22.8633 19.4242 22.9805 19.6352 23.2148C19.8695 23.4258 19.9867 23.6836 19.9867 23.9883C19.9867 24.3164 19.8695 24.5859 19.6352 24.7969C19.4242 25.0078 19.1664 25.1133 18.8617 25.1133C18.5102 25.1133 18.2289 24.9961 18.018 24.7617H15.0297C14.9125 25.3242 14.6781 25.8398 14.3266 26.3086C13.975 26.7539 13.5414 27.1055 13.0258 27.3633C12.5102 27.6211 11.9477 27.75 11.3383 27.75C10.6586 27.75 10.0258 27.5859 9.43984 27.2578C8.87734 26.9062 8.43203 26.4492 8.10391 25.8867C7.77578 25.3242 7.61172 24.6914 7.61172 23.9883C7.61172 23.4023 7.74063 22.8516 7.99844 22.3359C8.25625 21.8203 8.60781 21.3867 9.05313 21.0352C9.52188 20.6836 10.0375 20.4492 10.6 20.332V21.8789C10.1547 22.043 9.79141 22.3242 9.51016 22.7227C9.22891 23.0977 9.08828 23.5195 9.08828 23.9883C9.08828 24.4102 9.19375 24.7969 9.40469 25.1484C9.61563 25.4766 9.88516 25.7461 10.2133 25.957C10.5648 26.1445 10.9398 26.2383 11.3383 26.2383C11.7602 26.2383 12.1352 26.1445 12.4633 25.957C12.8148 25.7461 13.0844 25.4766 13.2719 25.1484C13.4828 24.7969 13.5883 24.4102 13.5883 23.9883V23.25ZM15.4867 14.9883C15.8852 14.9883 16.2484 15.0938 16.5766 15.3047C16.9281 15.5156 17.2094 15.7969 17.4203 16.1484C17.6313 16.4766 17.7367 16.8398 17.7367 17.2383H19.2133C19.2133 16.5586 19.0492 15.9375 18.7211 15.375C18.393 14.7891 17.9359 14.332 17.35 14.0039C16.7875 13.6758 16.1664 13.5117 15.4867 13.5117C14.7836 13.5117 14.1508 13.6758 13.5883 14.0039C13.0258 14.332 12.5688 14.7891 12.2172 15.375C11.8891 15.9375 11.725 16.5586 11.725 17.2383C11.725 17.7773 11.8305 18.2812 12.0414 18.75C12.2523 19.2188 12.5336 19.6289 12.8852 19.9805L11.1273 22.8984C10.8695 22.9453 10.6469 23.0742 10.4594 23.2852C10.2953 23.4961 10.2133 23.7305 10.2133 23.9883C10.2133 24.3164 10.3188 24.5859 10.5297 24.7969C10.7641 25.0078 11.0336 25.1133 11.3383 25.1133C11.6664 25.1133 11.9359 25.0078 12.1469 24.7969C12.3578 24.5859 12.4633 24.3164 12.4633 23.9883C12.4633 23.8711 12.4516 23.7656 12.4281 23.6719L14.9594 19.4531C14.4672 19.3359 14.057 19.0781 13.7289 18.6797C13.4008 18.2578 13.2367 17.7773 13.2367 17.2383C13.2367 16.8398 13.3305 16.4766 13.518 16.1484C13.7289 15.7969 13.9984 15.5156 14.3266 15.3047C14.6781 15.0938 15.0648 14.9883 15.4867 14.9883ZM18.8617 21.7383C18.393 21.7383 17.9594 21.8789 17.5609 22.1602L15.2758 18.3633C15.018 18.3164 14.7953 18.1875 14.6078 17.9766C14.4438 17.7656 14.3617 17.5195 14.3617 17.2383C14.3617 16.9336 14.4672 16.6758 14.6781 16.4648C14.8891 16.2305 15.1586 16.1133 15.4867 16.1133C15.7914 16.1133 16.0492 16.2305 16.2602 16.4648C16.4945 16.6758 16.6117 16.9336 16.6117 17.2383C16.6117 17.3555 16.5883 17.4727 16.5414 17.5898L18.1938 20.2969C18.4281 20.2734 18.6508 20.2617 18.8617 20.2617C19.5414 20.2617 20.1625 20.4258 20.725 20.7539C21.3109 21.082 21.768 21.5391 22.0961 22.125C22.4242 22.6875 22.5883 23.3086 22.5883 23.9883C22.5883 24.6914 22.4242 25.3242 22.0961 25.8867C21.768 26.4492 21.3109 26.9062 20.725 27.2578C20.1625 27.5859 19.5414 27.75 18.8617 27.75C18.1586 27.75 17.5141 27.5859 16.9281 27.2578C16.3656 26.9062 15.9203 26.4492 15.5922 25.8867H17.5961C17.9711 26.1211 18.393 26.2383 18.8617 26.2383C19.2602 26.2383 19.6234 26.1445 19.9516 25.957C20.3031 25.7461 20.5844 25.4766 20.7953 25.1484C21.0063 24.7969 21.1117 24.4102 21.1117 23.9883C21.1117 23.5898 21.0063 23.2266 20.7953 22.8984C20.5844 22.5469 20.3031 22.2656 19.9516 22.0547C19.6234 21.8438 19.2602 21.7383 18.8617 21.7383Z" fill="white"/>
</g>
<defs>
<filter id="filter0_d_104_2681" x="-6" y="0" width="42" height="42" filterUnits="userSpaceOnUse" color-interpolation-filters="sRGB">
<feFlood flood-opacity="0" result="BackgroundImageFix"/>
<feColorMatrix in="SourceAlpha" type="matrix" values="0 0 0 0 0 0 0 0 0 0 0 0 0 0 0 0 0 0 127 0" result="hardAlpha"/>
<feOffset/>
<feGaussianBlur stdDeviation="3"/>
<feComposite in2="hardAlpha" operator="out"/>
<feColorMatrix type="matrix" values="0 0 0 0 0.937255 0 0 0 0 0.027451 0 0 0 0 0.027451 0 0 0 1 0"/>
<feBlend mode="normal" in2="BackgroundImageFix" result="effect1_dropShadow_104_2681"/>
<feBlend mode="normal" in="SourceGraphic" in2="effect1_dropShadow_104_2681" result="shape"/>
</filter>
<linearGradient id="paint0_linear_104_2681" x1="0" y1="21" x2="30" y2="21" gradientUnits="userSpaceOnUse">
<stop stop-color="#E34F07"/>
<stop offset="0.5" stop-color="#E30707"/>
<stop offset="1" stop-color="#A63637"/>
</linearGradient>
</defs>
</svg>
