<svg width="42" height="42" viewBox="0 0 42 42" fill="none" xmlns="http://www.w3.org/2000/svg">
<g filter="url(#filter0_d_390_1869)">
<rect x="6" y="6" width="30" height="30" rx="15" fill="url(#paint0_linear_390_1869)"/>
<path d="M19.5883 23.25H24.018C24.2289 22.9922 24.5102 22.8633 24.8617 22.8633C25.1664 22.8633 25.4242 22.9805 25.6352 23.2148C25.8695 23.4258 25.9867 23.6836 25.9867 23.9883C25.9867 24.3164 25.8695 24.5859 25.6352 24.7969C25.4242 25.0078 25.1664 25.1133 24.8617 25.1133C24.5102 25.1133 24.2289 24.9961 24.018 24.7617H21.0297C20.9125 25.3242 20.6781 25.8398 20.3266 26.3086C19.975 26.7539 19.5414 27.1055 19.0258 27.3633C18.5102 27.6211 17.9477 27.75 17.3383 27.75C16.6586 27.75 16.0258 27.5859 15.4398 27.2578C14.8773 26.9062 14.432 26.4492 14.1039 25.8867C13.7758 25.3242 13.6117 24.6914 13.6117 23.9883C13.6117 23.4023 13.7406 22.8516 13.9984 22.3359C14.2563 21.8203 14.6078 21.3867 15.0531 21.0352C15.5219 20.6836 16.0375 20.4492 16.6 20.332V21.8789C16.1547 22.043 15.7914 22.3242 15.5102 22.7227C15.2289 23.0977 15.0883 23.5195 15.0883 23.9883C15.0883 24.4102 15.1938 24.7969 15.4047 25.1484C15.6156 25.4766 15.8852 25.7461 16.2133 25.957C16.5648 26.1445 16.9398 26.2383 17.3383 26.2383C17.7602 26.2383 18.1352 26.1445 18.4633 25.957C18.8148 25.7461 19.0844 25.4766 19.2719 25.1484C19.4828 24.7969 19.5883 24.4102 19.5883 23.9883V23.25ZM21.4867 14.9883C21.8852 14.9883 22.2484 15.0938 22.5766 15.3047C22.9281 15.5156 23.2094 15.7969 23.4203 16.1484C23.6313 16.4766 23.7367 16.8398 23.7367 17.2383H25.2133C25.2133 16.5586 25.0492 15.9375 24.7211 15.375C24.393 14.7891 23.9359 14.332 23.35 14.0039C22.7875 13.6758 22.1664 13.5117 21.4867 13.5117C20.7836 13.5117 20.1508 13.6758 19.5883 14.0039C19.0258 14.332 18.5688 14.7891 18.2172 15.375C17.8891 15.9375 17.725 16.5586 17.725 17.2383C17.725 17.7773 17.8305 18.2812 18.0414 18.75C18.2523 19.2188 18.5336 19.6289 18.8852 19.9805L17.1273 22.8984C16.8695 22.9453 16.6469 23.0742 16.4594 23.2852C16.2953 23.4961 16.2133 23.7305 16.2133 23.9883C16.2133 24.3164 16.3188 24.5859 16.5297 24.7969C16.7641 25.0078 17.0336 25.1133 17.3383 25.1133C17.6664 25.1133 17.9359 25.0078 18.1469 24.7969C18.3578 24.5859 18.4633 24.3164 18.4633 23.9883C18.4633 23.8711 18.4516 23.7656 18.4281 23.6719L20.9594 19.4531C20.4672 19.3359 20.057 19.0781 19.7289 18.6797C19.4008 18.2578 19.2367 17.7773 19.2367 17.2383C19.2367 16.8398 19.3305 16.4766 19.518 16.1484C19.7289 15.7969 19.9984 15.5156 20.3266 15.3047C20.6781 15.0938 21.0648 14.9883 21.4867 14.9883ZM24.8617 21.7383C24.393 21.7383 23.9594 21.8789 23.5609 22.1602L21.2758 18.3633C21.018 18.3164 20.7953 18.1875 20.6078 17.9766C20.4438 17.7656 20.3617 17.5195 20.3617 17.2383C20.3617 16.9336 20.4672 16.6758 20.6781 16.4648C20.8891 16.2305 21.1586 16.1133 21.4867 16.1133C21.7914 16.1133 22.0492 16.2305 22.2602 16.4648C22.4945 16.6758 22.6117 16.9336 22.6117 17.2383C22.6117 17.3555 22.5883 17.4727 22.5414 17.5898L24.1938 20.2969C24.4281 20.2734 24.6508 20.2617 24.8617 20.2617C25.5414 20.2617 26.1625 20.4258 26.725 20.7539C27.3109 21.082 27.768 21.5391 28.0961 22.125C28.4242 22.6875 28.5883 23.3086 28.5883 23.9883C28.5883 24.6914 28.4242 25.3242 28.0961 25.8867C27.768 26.4492 27.3109 26.9062 26.725 27.2578C26.1625 27.5859 25.5414 27.75 24.8617 27.75C24.1586 27.75 23.5141 27.5859 22.9281 27.2578C22.3656 26.9062 21.9203 26.4492 21.5922 25.8867H23.5961C23.9711 26.1211 24.393 26.2383 24.8617 26.2383C25.2602 26.2383 25.6234 26.1445 25.9516 25.957C26.3031 25.7461 26.5844 25.4766 26.7953 25.1484C27.0063 24.7969 27.1117 24.4102 27.1117 23.9883C27.1117 23.5898 27.0063 23.2266 26.7953 22.8984C26.5844 22.5469 26.3031 22.2656 25.9516 22.0547C25.6234 21.8438 25.2602 21.7383 24.8617 21.7383Z" fill="white"/>
</g>
<defs>
<filter id="filter0_d_390_1869" x="0" y="0" width="42" height="42" filterUnits="userSpaceOnUse" color-interpolation-filters="sRGB">
<feFlood flood-opacity="0" result="BackgroundImageFix"/>
<feColorMatrix in="SourceAlpha" type="matrix" values="0 0 0 0 0 0 0 0 0 0 0 0 0 0 0 0 0 0 127 0" result="hardAlpha"/>
<feOffset/>
<feGaussianBlur stdDeviation="3"/>
<feComposite in2="hardAlpha" operator="out"/>
<feColorMatrix type="matrix" values="0 0 0 0 0.937255 0 0 0 0 0.027451 0 0 0 0 0.027451 0 0 0 1 0"/>
<feBlend mode="normal" in2="BackgroundImageFix" result="effect1_dropShadow_390_1869"/>
<feBlend mode="normal" in="SourceGraphic" in2="effect1_dropShadow_390_1869" result="shape"/>
</filter>
<linearGradient id="paint0_linear_390_1869" x1="6" y1="21" x2="36" y2="21" gradientUnits="userSpaceOnUse">
<stop stop-color="#E34F07"/>
<stop offset="0.5" stop-color="#E30707"/>
<stop offset="1" stop-color="#A63637"/>
</linearGradient>
</defs>
</svg>
