<svg width="47" height="47" viewBox="0 0 47 47" fill="none" xmlns="http://www.w3.org/2000/svg">
<circle cx="23.5" cy="23.5" r="23.5" fill="url(#paint0_linear_401_2170)"/>
<path d="M16.2311 29.7358C16.3933 29.2117 16.2049 28.6439 15.8208 28.319C15.6429 28.1686 15.4673 28.0154 15.297 27.8535C14.3284 26.941 13.5239 25.8495 13.0309 24.4621C12.2305 22.2132 12.4108 20.0423 13.4601 17.9782C14.5487 15.8372 16.1643 14.4977 18.0566 13.6451C21.1934 12.2308 24.3666 12.1608 27.5385 13.4632C29.394 14.2248 31.0113 15.4473 32.2099 17.3973C33.9284 20.1961 33.8085 23.7743 31.9203 26.427C30.3903 28.576 28.4115 29.7435 26.1929 30.3862C24.9884 30.7356 21.872 30.1383 21.0702 30.94C19.3811 32.6811 17.4432 33.7825 15.2905 34.3383C15.0947 34.3882 14.894 34.4202 14.6957 34.4552C14.4443 34.5002 14.2387 34.4152 14.1098 34.1274C13.9817 33.8395 14.0282 33.5777 14.1881 33.3398C14.3742 33.0639 14.5635 32.79 14.7666 32.5362C15.4102 31.7353 15.9078 30.7805 16.2311 29.7358Z" stroke="#363958" stroke-width="1.25"/>
<defs>
<linearGradient id="paint0_linear_401_2170" x1="23.5" y1="0" x2="23.5" y2="47" gradientUnits="userSpaceOnUse">
<stop stop-color="#FFECB6"/>
<stop offset="1" stop-color="#FFE598"/>
</linearGradient>
</defs>
</svg>
