<svg width="65" height="67" viewBox="0 0 65 67" fill="none" xmlns="http://www.w3.org/2000/svg">
<rect width="65" height="66.1207" rx="10" fill="white" fill-opacity="0.2"/>
<circle cx="33.0602" cy="33.0602" r="25.2155" fill="url(#paint0_linear_64_2820)"/>
<path d="M25.2612 39.7514C25.4353 39.189 25.233 38.5798 24.8209 38.2312C24.63 38.0697 24.4416 37.9054 24.2589 37.7317C23.2196 36.7525 22.3563 35.5813 21.8274 34.0927C20.9685 31.6796 21.162 29.3503 22.288 27.1354C23.4559 24.8381 25.1895 23.4009 27.22 22.486C30.5857 20.9685 33.9906 20.8934 37.394 22.2909C39.385 23.1081 41.1204 24.4197 42.4065 26.5122C44.2504 29.5153 44.1217 33.3547 42.0957 36.201C40.454 38.5069 38.3308 39.7596 35.9502 40.4493C34.6578 40.8242 31.3138 40.1832 30.4535 41.0434C28.6411 42.9117 26.5617 44.0935 24.252 44.6898C24.0418 44.7434 23.8264 44.7778 23.6137 44.8153C23.344 44.8636 23.1234 44.7724 22.985 44.4635C22.8476 44.1547 22.8975 43.8737 23.0691 43.6184C23.2687 43.3224 23.4718 43.0286 23.6898 42.7561C24.3804 41.8969 24.9143 40.8723 25.2612 39.7514Z" stroke="#363958" stroke-width="1.25"/>
<defs>
<linearGradient id="paint0_linear_64_2820" x1="33.0602" y1="7.84472" x2="33.0602" y2="58.2758" gradientUnits="userSpaceOnUse">
<stop stop-color="#FFECB6"/>
<stop offset="1" stop-color="#FFE598"/>
</linearGradient>
</defs>
</svg>
