<svg width="44" height="44" viewBox="0 0 44 44" fill="none" xmlns="http://www.w3.org/2000/svg">
<rect x="44.0001" width="44" height="44" rx="22" transform="rotate(90 44.0001 0)" fill="white" fill-opacity="0.2"/>
<path d="M26.8682 13C26.1729 13 25.7201 13.4742 25.7201 14.1626L25.7201 30.8374C25.7201 31.5105 26.1729 32 26.8682 32C27.5473 32 28 31.5105 28 30.8374L28 14.1626C28 13.4742 27.5473 13 26.8682 13Z" fill="white"/>
<path d="M21.5162 15.2641C20.8209 15.2641 20.3682 15.7383 20.3682 16.4267L20.3682 28.5733C20.3682 29.2464 20.8209 29.7206 21.5162 29.7206C22.1953 29.7206 22.648 29.2464 22.648 28.5733L22.648 16.4267C22.648 15.7383 22.1953 15.2641 21.5162 15.2641Z" fill="white"/>
<path d="M16.148 17.6353C15.4689 17.6353 15 18.1095 15 18.7826L15 26.2021C15 26.8752 15.4689 27.3647 16.148 27.3647C16.8271 27.3647 17.2799 26.8752 17.2799 26.2021L17.2799 18.7826C17.2799 18.1095 16.8271 17.6353 16.148 17.6353Z" fill="white"/>
</svg>
