<svg width="42" height="42" viewBox="0 0 42 42" fill="none" xmlns="http://www.w3.org/2000/svg">
<g filter="url(#filter0_d_390_1901)">
<rect x="6" y="6" width="30" height="30" rx="15" fill="url(#paint0_linear_390_1901)"/>
<path d="M20.3617 22.5117C20.3617 21.7852 20.4906 21.1055 20.7484 20.4727C21.0297 19.8398 21.4047 19.2891 21.8734 18.8203C22.3656 18.3281 22.9281 17.9414 23.5609 17.6602C24.1938 17.3789 24.8734 17.2383 25.6 17.2383V15.7617C24.6625 15.7617 23.7836 15.9375 22.9633 16.2891C22.1664 16.6406 21.4516 17.1211 20.8188 17.7305C20.2094 18.3398 19.7289 19.0547 19.3773 19.875C19.0258 20.6953 18.85 21.5742 18.85 22.5117H20.3617ZM25.6 20.2617C25.1781 20.2617 24.7914 20.3672 24.4398 20.5781C24.1117 20.7656 23.8422 21.0352 23.6313 21.3867C23.4438 21.7148 23.35 22.0898 23.35 22.5117H21.8383C21.8383 21.8086 22.0023 21.1758 22.3305 20.6133C22.682 20.0508 23.1391 19.6055 23.7016 19.2773C24.2875 18.9258 24.9203 18.75 25.6 18.75V20.2617ZM17.3383 14.9883C17.3383 15.4102 17.1859 15.7734 16.8813 16.0781C16.6 16.3594 16.2602 16.5 15.8617 16.5C15.4398 16.5 15.0766 16.3594 14.7719 16.0781C14.4906 15.7734 14.35 15.4102 14.35 14.9883C14.35 14.5898 14.4906 14.25 14.7719 13.9688C15.0766 13.6641 15.4398 13.5117 15.8617 13.5117C16.2602 13.5117 16.6 13.6641 16.8813 13.9688C17.1859 14.25 17.3383 14.5898 17.3383 14.9883ZM20.6781 15.375C20.6078 16.125 20.3266 16.793 19.8344 17.3789C19.3656 17.9414 18.7914 18.3281 18.1117 18.5391V20.2617H13.6117V18.3633C13.6117 18.0586 13.7172 17.8008 13.9281 17.5898C14.1391 17.3555 14.4086 17.2383 14.7367 17.2383H16.9867C17.5492 17.2383 18.0297 17.0625 18.4281 16.7109C18.85 16.3594 19.1078 15.9141 19.2016 15.375H20.6781ZM26.3383 24.7617C25.9398 24.7617 25.5883 24.6211 25.2836 24.3398C25.0023 24.0352 24.8617 23.6719 24.8617 23.25C24.8617 22.8281 25.0023 22.4766 25.2836 22.1953C25.5883 21.8906 25.9398 21.7383 26.3383 21.7383C26.7602 21.7383 27.1117 21.8906 27.393 22.1953C27.6977 22.4766 27.85 22.8281 27.85 23.25C27.85 23.6719 27.6977 24.0352 27.393 24.3398C27.1117 24.6211 26.7602 24.7617 26.3383 24.7617ZM27.4633 25.5C27.7914 25.5 28.0609 25.6172 28.2719 25.8516C28.4828 26.0625 28.5883 26.3203 28.5883 26.625V28.4883H24.0883V26.8008C23.4086 26.5898 22.8227 26.2031 22.3305 25.6406C21.8617 25.0547 21.5922 24.3867 21.5219 23.6367H22.9984C23.0922 24.1523 23.3383 24.5977 23.7367 24.9727C24.1586 25.3242 24.6508 25.5 25.2133 25.5H27.4633Z" fill="white"/>
</g>
<defs>
<filter id="filter0_d_390_1901" x="0" y="0" width="42" height="42" filterUnits="userSpaceOnUse" color-interpolation-filters="sRGB">
<feFlood flood-opacity="0" result="BackgroundImageFix"/>
<feColorMatrix in="SourceAlpha" type="matrix" values="0 0 0 0 0 0 0 0 0 0 0 0 0 0 0 0 0 0 127 0" result="hardAlpha"/>
<feOffset/>
<feGaussianBlur stdDeviation="3"/>
<feComposite in2="hardAlpha" operator="out"/>
<feColorMatrix type="matrix" values="0 0 0 0 0.976471 0 0 0 0 0.74902 0 0 0 0 0.0313726 0 0 0 0.5 0"/>
<feBlend mode="normal" in2="BackgroundImageFix" result="effect1_dropShadow_390_1901"/>
<feBlend mode="normal" in="SourceGraphic" in2="effect1_dropShadow_390_1901" result="shape"/>
</filter>
<linearGradient id="paint0_linear_390_1901" x1="21" y1="6" x2="21" y2="36" gradientUnits="userSpaceOnUse">
<stop stop-color="#FCAF42"/>
<stop offset="0.0602" stop-color="#FBAE41"/>
<stop offset="1" stop-color="#F25F2C"/>
</linearGradient>
</defs>
</svg>
