<svg width="64" height="64" viewBox="0 0 64 64" fill="none" xmlns="http://www.w3.org/2000/svg">
<rect width="64" height="64" rx="20" fill="#E8E8E8"/>
<path d="M19 40.925V21.35C19 20.1963 19.4565 19.0899 20.2692 18.2741C21.0819 17.4583 22.1841 17 23.3333 17H43.5556C43.9386 17 44.306 17.1528 44.5769 17.4247C44.8478 17.6966 45 18.0654 45 18.45V44.55C45 44.9346 44.8478 45.3034 44.5769 45.5753C44.306 45.8472 43.9386 46 43.5556 46H24.0556C22.7147 46 21.4288 45.4653 20.4807 44.5136C19.5326 43.5618 19 42.271 19 40.925ZM42.1111 43.1V38.75H24.0556C23.4809 38.75 22.9298 38.9792 22.5235 39.387C22.1172 39.7949 21.8889 40.3482 21.8889 40.925C21.8889 41.5018 22.1172 42.0551 22.5235 42.463C22.9298 42.8708 23.4809 43.1 24.0556 43.1H42.1111ZM21.8889 36.3387C22.5659 36.0159 23.3061 35.849 24.0556 35.85H42.1111V19.9H23.3333C22.9502 19.9 22.5828 20.0528 22.312 20.3247C22.0411 20.5966 21.8889 20.9654 21.8889 21.35V36.3387Z" fill="black"/>
</svg>
