<svg width="19" height="19" viewBox="0 0 19 19" fill="none" xmlns="http://www.w3.org/2000/svg">
<path d="M13.9318 1.48947L10.2931 0.579793C10.1396 0.541325 9.98199 0.521824 9.82376 0.521729H5.93537C5.57586 0.521741 5.22346 0.621883 4.91767 0.81093C4.61187 0.999977 4.36478 1.27046 4.20408 1.59205L0.816982 8.36624C0.66953 8.66132 0.599942 8.9892 0.614825 9.31873C0.629709 9.64827 0.728569 9.96853 0.902021 10.2491C1.07547 10.5297 1.31776 10.7613 1.60588 10.9219C1.89401 11.0826 2.2184 11.1669 2.54827 11.1669H7.15859H9.09408M13.9318 1.48947L13.9328 10.1991L10.6502 15.123C10.266 15.6988 10.0618 16.3743 10.0618 17.0662C10.0618 17.5491 9.66989 17.9411 9.18601 17.9411H9.09311C8.57979 17.9411 8.08749 17.7372 7.72452 17.3742C7.36154 17.0112 7.15763 16.5189 7.15763 16.0056V11.1669M13.9318 1.48947H15.8683C16.3816 1.48947 16.8739 1.69339 17.2369 2.05636C17.5998 2.41933 17.8038 2.91163 17.8038 3.42495V9.2314C17.8038 9.74473 17.5998 10.237 17.2369 10.6C16.8739 10.963 16.3816 11.1669 15.8683 11.1669H13.4489" stroke="#5B5B5B" stroke-opacity="0.53" stroke-linecap="round" stroke-linejoin="round"/>
</svg>
