<svg width="48" height="47" viewBox="0 0 48 47" fill="none" xmlns="http://www.w3.org/2000/svg">
<ellipse cx="23.5836" cy="23.4554" rx="23.5836" ry="23.4554" fill="url(#paint0_linear_379_2157)"/>
<path d="M34.8249 14.4026L33.6474 13.2824C32.5642 12.2519 30.8078 12.2519 29.7246 13.2824L14.1411 28.1073C13.8366 28.397 13.6072 28.7501 13.471 29.1388L11.5665 34.5742C11.3858 35.09 11.9016 35.5806 12.4437 35.4087L18.1572 33.5969C18.5658 33.4673 18.937 33.2491 19.2415 32.9594L34.8249 18.1345C35.9082 17.104 35.9082 15.4332 34.8249 14.4026Z" fill="url(#paint1_linear_379_2157)"/>
<path d="M27.9754 14.9464L33.1038 19.7718M33.6474 13.2824L34.8249 14.4026C35.9082 15.4332 35.9082 17.104 34.8249 18.1345L19.2415 32.9594C18.937 33.2491 18.5658 33.4673 18.1572 33.5969L12.4437 35.4087C11.9016 35.5806 11.3858 35.09 11.5665 34.5742L13.471 29.1388C13.6072 28.7501 13.8366 28.397 14.1411 28.1073L29.7246 13.2824C30.8078 12.2519 32.5642 12.2519 33.6474 13.2824Z" stroke="#363958" stroke-width="2" stroke-linecap="round"/>
<defs>
<linearGradient id="paint0_linear_379_2157" x1="23.5836" y1="0" x2="23.5836" y2="46.9108" gradientUnits="userSpaceOnUse">
<stop stop-color="#D3D7FB"/>
<stop offset="1" stop-color="#D3D7FB"/>
</linearGradient>
<linearGradient id="paint1_linear_379_2157" x1="23.5835" y1="12.5095" x2="23.5835" y2="35.4437" gradientUnits="userSpaceOnUse">
<stop stop-color="#D3D7FB"/>
<stop offset="1" stop-color="#D3D7FB"/>
</linearGradient>
</defs>
</svg>
