<svg width="44" height="44" viewBox="0 0 44 44" fill="none" xmlns="http://www.w3.org/2000/svg">
<rect y="44" width="44" height="44" rx="22" transform="rotate(-90 0 44)" fill="white" fill-opacity="0.2"/>
<path d="M17.1318 31C17.8271 31 18.2799 30.5258 18.2799 29.8374L18.2799 13.1626C18.2799 12.4895 17.8271 12 17.1318 12C16.4527 12 16 12.4895 16 13.1626L16 29.8374C16 30.5258 16.4527 31 17.1318 31Z" fill="white"/>
<path d="M22.4838 28.7359C23.1791 28.7359 23.6318 28.2617 23.6318 27.5733L23.6318 15.4267C23.6318 14.7536 23.1791 14.2794 22.4838 14.2794C21.8047 14.2794 21.352 14.7536 21.352 15.4267L21.352 27.5733C21.352 28.2617 21.8047 28.7359 22.4838 28.7359Z" fill="white"/>
<path d="M27.852 26.3647C28.5311 26.3647 29 25.8905 29 25.2174L29 17.7979C29 17.1248 28.5311 16.6353 27.852 16.6353C27.1729 16.6353 26.7201 17.1248 26.7201 17.7979L26.7201 25.2174C26.7201 25.8905 27.1729 26.3647 27.852 26.3647Z" fill="white"/>
</svg>
