<svg width="42" height="42" viewBox="0 0 42 42" fill="none" xmlns="http://www.w3.org/2000/svg">
<g filter="url(#filter0_d_390_1885)">
<rect x="6" y="6" width="30" height="30" rx="15" fill="url(#paint0_linear_390_1885)"/>
<path d="M17.3734 15.0586C18.4047 14.0273 19.6469 13.5117 21.1 13.5117C22.5531 13.5117 23.7836 14.0273 24.7914 15.0586C25.8227 16.0664 26.3383 17.2969 26.3383 18.75C26.3383 20.5078 25.5883 21.9375 24.0883 23.0391V24.7617C24.0883 24.9727 24.018 25.1484 23.8773 25.2891C23.7367 25.4297 23.5609 25.5 23.35 25.5H18.85C18.6391 25.5 18.4633 25.4297 18.3227 25.2891C18.182 25.1484 18.1117 24.9727 18.1117 24.7617V23.0391C16.6117 22.0078 15.8617 20.5781 15.8617 18.75C15.8617 17.2969 16.3656 16.0664 17.3734 15.0586ZM18.85 27.75V27.0117H23.35V27.75C23.35 27.9609 23.2797 28.1367 23.1391 28.2773C22.9984 28.418 22.8227 28.4883 22.6117 28.4883H19.5883C19.3773 28.4883 19.2016 28.418 19.0609 28.2773C18.9203 28.1367 18.85 27.9609 18.85 27.75Z" fill="white"/>
</g>
<defs>
<filter id="filter0_d_390_1885" x="0" y="0" width="42" height="42" filterUnits="userSpaceOnUse" color-interpolation-filters="sRGB">
<feFlood flood-opacity="0" result="BackgroundImageFix"/>
<feColorMatrix in="SourceAlpha" type="matrix" values="0 0 0 0 0 0 0 0 0 0 0 0 0 0 0 0 0 0 127 0" result="hardAlpha"/>
<feOffset/>
<feGaussianBlur stdDeviation="3"/>
<feComposite in2="hardAlpha" operator="out"/>
<feColorMatrix type="matrix" values="0 0 0 0 0.0352941 0 0 0 0 0.976471 0 0 0 0 0.0980392 0 0 0 0.5 0"/>
<feBlend mode="normal" in2="BackgroundImageFix" result="effect1_dropShadow_390_1885"/>
<feBlend mode="normal" in="SourceGraphic" in2="effect1_dropShadow_390_1885" result="shape"/>
</filter>
<linearGradient id="paint0_linear_390_1885" x1="6" y1="6" x2="35.4077" y2="36.5698" gradientUnits="userSpaceOnUse">
<stop offset="0.2451" stop-color="#8DC63F"/>
<stop offset="1" stop-color="#3CB96D"/>
</linearGradient>
</defs>
</svg>
