<svg width="18" height="18" viewBox="0 0 18 18" fill="none" xmlns="http://www.w3.org/2000/svg">
<g clip-path="url(#clip0_426_2054)">
<path d="M5.04175 17.82C3.87805 17.82 2.78815 17.3205 2.00155 16.524C0.476055 14.9796 0.0512549 12.2841 2.18965 10.1196L10.9629 1.23663C11.8521 0.336627 12.9834 -0.0116728 14.0661 0.282627C15.1308 0.570627 16.002 1.45353 16.2873 2.53083C16.5771 3.62883 16.2342 4.77453 15.3459 5.67453L6.95516 14.1705C6.47635 14.6556 5.93455 14.9427 5.39095 15.0003C4.85185 15.0579 4.33796 14.8833 3.97796 14.5188C3.32636 13.8564 3.23275 12.6135 4.31815 11.5155L10.2114 5.54853C10.4535 5.30373 10.8459 5.30373 11.088 5.54853C11.3301 5.79333 11.3301 6.19113 11.088 6.43593L5.19385 12.4038C4.68445 12.9186 4.63765 13.4109 4.85455 13.6314C4.94995 13.7268 5.09395 13.7709 5.26045 13.752C5.51515 13.7259 5.80585 13.5576 6.07855 13.2831L14.4693 4.78803C15.0453 4.20483 15.2658 3.51903 15.0903 2.85753C15.0025 2.53405 14.8327 2.23871 14.5973 2.00014C14.3619 1.76157 14.0688 1.58785 13.7466 1.49583C13.0932 1.31853 12.4146 1.54263 11.8386 2.12583L3.06535 11.0088C1.43095 12.6639 1.82245 14.5692 2.87725 15.6375C3.93295 16.7058 5.81305 17.1036 7.44835 15.4467L16.2216 6.56373C16.2788 6.50555 16.347 6.45934 16.4222 6.4278C16.4975 6.39626 16.5783 6.38001 16.6599 6.38001C16.7414 6.38001 16.8222 6.39626 16.8975 6.4278C16.9727 6.45934 17.0409 6.50555 17.0982 6.56373C17.2146 6.68222 17.2799 6.84173 17.2799 7.00788C17.2799 7.17403 17.2146 7.33353 17.0982 7.45203L8.32495 16.335C7.29085 17.3808 6.13256 17.82 5.04175 17.82Z" fill="#252525"/>
</g>
<defs>
<clipPath id="clip0_426_2054">
<rect width="18" height="18" fill="white"/>
</clipPath>
</defs>
</svg>
