<svg width="47" height="34" viewBox="0 0 47 34" fill="none" xmlns="http://www.w3.org/2000/svg">
<rect width="47" height="33.7812" rx="16.8906" fill="#D9D9D9"/>
<path d="M19.85 18.7999C19.7307 18.7999 19.6162 18.7525 19.5318 18.6681C19.4474 18.5837 19.4 18.4692 19.4 18.3499C19.4 18.2306 19.4474 18.1161 19.5318 18.0317C19.6162 17.9473 19.7307 17.8999 19.85 17.8999H26.15C26.2694 17.8999 26.3838 17.9473 26.4682 18.0317C26.5526 18.1161 26.6 18.2306 26.6 18.3499C26.6 18.4692 26.5526 18.5837 26.4682 18.6681C26.3838 18.7525 26.2694 18.7999 26.15 18.7999H19.85ZM19.85 21.4999C19.7307 21.4999 19.6162 21.4525 19.5318 21.3681C19.4474 21.2837 19.4 21.1692 19.4 21.0499C19.4 20.9306 19.4474 20.8161 19.5318 20.7317C19.6162 20.6473 19.7307 20.5999 19.85 20.5999H26.15C26.2694 20.5999 26.3838 20.6473 26.4682 20.7317C26.5526 20.8161 26.6 20.9306 26.6 21.0499C26.6 21.1692 26.5526 21.2837 26.4682 21.3681C26.3838 21.4525 26.2694 21.4999 26.15 21.4999H19.85Z" fill="#0A25B4"/>
<path fill-rule="evenodd" clip-rule="evenodd" d="M24.0665 8.8999H18.05C17.692 8.8999 17.3486 9.04213 17.0954 9.29531C16.8422 9.54848 16.7 9.89186 16.7 10.2499V23.7499C16.7 24.1079 16.8422 24.4513 17.0954 24.7045C17.3486 24.9577 17.692 25.0999 18.05 25.0999H27.95C28.3081 25.0999 28.6514 24.9577 28.9046 24.7045C29.1578 24.4513 29.3 24.1079 29.3 23.7499V14.4817C29.2999 14.1437 29.1731 13.8181 28.9445 13.5691L25.0619 9.3373C24.9354 9.19937 24.7816 9.08926 24.6102 9.01396C24.4388 8.93866 24.2537 8.89982 24.0665 8.8999ZM17.6 10.2499C17.6 10.1306 17.6474 10.0161 17.7318 9.9317C17.8162 9.84731 17.9307 9.7999 18.05 9.7999H24.0665C24.129 9.79983 24.1907 9.81276 24.2479 9.83786C24.3051 9.86296 24.3564 9.89969 24.3986 9.9457L28.2812 14.1775C28.3575 14.2604 28.3999 14.369 28.4 14.4817V23.7499C28.4 23.8693 28.3526 23.9837 28.2682 24.0681C28.1838 24.1525 28.0694 24.1999 27.95 24.1999H18.05C17.9307 24.1999 17.8162 24.1525 17.7318 24.0681C17.6474 23.9837 17.6 23.8693 17.6 23.7499V10.2499Z" fill="#0A25B4"/>
<path d="M23.9 14.2999H28.85C28.9693 14.2999 29.0838 14.3473 29.1682 14.4317C29.2526 14.5161 29.3 14.6306 29.3 14.7499C29.3 14.8692 29.2526 14.9837 29.1682 15.0681C29.0838 15.1525 28.9693 15.1999 28.85 15.1999H23.45C23.3307 15.1999 23.2162 15.1525 23.1318 15.0681C23.0474 14.9837 23 14.8692 23 14.7499V9.3499C23 9.23055 23.0474 9.1161 23.1318 9.0317C23.2162 8.94731 23.3307 8.8999 23.45 8.8999C23.5693 8.8999 23.6838 8.94731 23.7682 9.0317C23.8526 9.1161 23.9 9.23055 23.9 9.3499V14.2999Z" fill="#0A25B4"/>
</svg>
