<svg width="47" height="34" viewBox="0 0 47 34" fill="none" xmlns="http://www.w3.org/2000/svg">
<rect width="47" height="33.7812" rx="16.8906" fill="#D9D9D9"/>
<path d="M25.2056 14.9718H30.3971C30.7685 14.9718 31.1338 15.0667 31.4582 15.2476C31.7827 15.4285 32.0555 15.6893 32.2508 16.0052C32.4461 16.3212 32.5574 16.6818 32.5742 17.0529C32.591 17.4239 32.5126 17.7931 32.3466 18.1254L28.5326 25.7534C28.3515 26.1157 28.0731 26.4204 27.7286 26.6333C27.384 26.8462 26.987 26.9589 26.582 26.9587H22.2046C22.0269 26.9587 21.8493 26.9369 21.676 26.8933L17.5776 25.8689M25.2056 14.9718V9.52319C25.2056 8.94516 24.976 8.39082 24.5673 7.98209C24.1586 7.57337 23.6042 7.34375 23.0262 7.34375H22.9227C22.3778 7.34375 21.9365 7.78509 21.9365 8.32994C21.9365 9.108 21.7066 9.86863 21.2739 10.5159L17.5776 16.0615V25.8689M25.2056 14.9718H23.0262M17.5776 25.8689H15.3982C14.8202 25.8689 14.2658 25.6393 13.8571 25.2306C13.4484 24.8219 13.2188 24.2675 13.2188 23.6895V17.1512C13.2188 16.5732 13.4484 16.0188 13.8571 15.6101C14.2658 15.2014 14.8202 14.9718 15.3982 14.9718H18.1225" stroke="#1E9500" stroke-linecap="round" stroke-linejoin="round"/>
</svg>
