<svg width="20" height="19" viewBox="0 0 20 19" fill="none" xmlns="http://www.w3.org/2000/svg">
<path d="M11.9974 7.29592H16.6077C16.9376 7.29593 17.262 7.38025 17.5501 7.54088C17.8382 7.7015 18.0805 7.9331 18.2539 8.21369C18.4274 8.49428 18.5263 8.81454 18.5411 9.14408C18.556 9.47361 18.4864 9.80148 18.339 10.0966L14.9519 16.8708C14.7911 17.1925 14.5439 17.4631 14.2379 17.6521C13.9319 17.8412 13.5793 17.9412 13.2196 17.9411H9.3322C9.17446 17.9411 9.01672 17.9217 8.86285 17.883L5.22317 16.9733M11.9974 7.29592V2.45721C11.9974 1.94389 11.7934 1.45159 11.4305 1.08862C11.0675 0.725645 10.5752 0.521729 10.0619 0.521729H9.96994C9.48607 0.521729 9.09414 0.913664 9.09414 1.39753C9.09414 2.0885 8.88995 2.76399 8.50575 3.33882L5.22317 8.26366V16.9733M11.9974 7.29592H10.0619M5.22317 16.9733H3.28769C2.77436 16.9733 2.28207 16.7694 1.91909 16.4064C1.55612 16.0435 1.3522 15.5512 1.3522 15.0379V9.2314C1.3522 8.71808 1.55612 8.22578 1.91909 7.86281C2.28207 7.49984 2.77436 7.29592 3.28769 7.29592H5.70704" stroke="#5B5B5B" stroke-opacity="0.53" stroke-linecap="round" stroke-linejoin="round"/>
</svg>
