<svg width="47" height="47" viewBox="0 0 47 47" fill="none" xmlns="http://www.w3.org/2000/svg">
<circle cx="23.5" cy="23.5" r="23.5" fill="white" fill-opacity="0.2"/>
<path d="M26.8074 20.6479H15.7827C14.5649 20.6479 13.5778 21.6551 13.5778 22.8975V25.1471C13.5778 26.3895 14.5649 27.3967 15.7827 27.3967H26.8074M26.8074 20.6479H31.2173C32.435 20.6479 33.4222 21.6551 33.4222 22.8975V25.1471C33.4222 26.3895 32.435 27.3967 31.2173 27.3967H26.8074M26.8074 20.6479V24.0223M26.8074 20.6479V16.7112M26.8074 27.3967V24.0223M26.8074 27.3967V31.3334M17.4364 24.0223H26.8074M26.8074 16.7112H29.5636M26.8074 16.7112H24.0512M26.8074 31.3334H29.5636M26.8074 31.3334H24.0512" stroke="white" stroke-width="1.5" stroke-linecap="round" stroke-linejoin="round"/>
</svg>
