<svg width="23" height="23" viewBox="0 0 23 23" fill="none" xmlns="http://www.w3.org/2000/svg">
<path d="M23.3437 21.3534L16.4836 14.4921C17.5891 12.9728 18.1838 11.1418 18.182 9.26288C18.182 4.34498 14.1808 0.34375 9.26288 0.34375C4.34498 0.34375 0.34375 4.34498 0.34375 9.26288C0.34375 14.1808 4.34498 18.182 9.26288 18.182C11.1418 18.1838 12.9728 17.5891 14.4921 16.4836L21.3534 23.3437L23.3437 21.3534ZM9.26288 15.3651C8.05583 15.3652 6.87585 15.0073 5.87218 14.3368C4.8685 13.6663 4.08621 12.7132 3.62424 11.598C3.16227 10.4829 3.04137 9.25575 3.27683 8.07188C3.51228 6.88801 4.09353 5.80056 4.94704 4.94704C5.80056 4.09353 6.88801 3.51228 8.07188 3.27683C9.25575 3.04137 10.4829 3.16227 11.598 3.62424C12.7132 4.08621 13.6663 4.8685 14.3368 5.87218C15.0073 6.87585 15.3652 8.05583 15.3651 9.26288C15.3632 10.8807 14.7197 12.4317 13.5757 13.5757C12.4317 14.7197 10.8807 15.3632 9.26288 15.3651Z" fill="#F2F2F2"/>
</svg>
