<svg width="23" height="23" viewBox="0 0 23 23" fill="none" xmlns="http://www.w3.org/2000/svg">
<path d="M23 21.0096L16.1398 14.1483C17.2454 12.6291 17.8401 10.7981 17.8383 8.91914C17.8383 4.00123 13.837 0 8.91914 0C4.00123 0 0 4.00123 0 8.91914C0 13.837 4.00123 17.8383 8.91914 17.8383C10.7981 17.8401 12.6291 17.2454 14.1483 16.1398L21.0096 23L23 21.0096ZM8.91914 15.0213C7.71208 15.0214 6.5321 14.6636 5.52843 13.9931C4.52475 13.3225 3.74246 12.3694 3.28049 11.2543C2.81852 10.1391 2.69762 8.912 2.93308 7.72813C3.16853 6.54426 3.74978 5.45681 4.60329 4.60329C5.45681 3.74978 6.54426 3.16853 7.72813 2.93308C8.912 2.69762 10.1391 2.81852 11.2543 3.28049C12.3694 3.74246 13.3225 4.52475 13.9931 5.52843C14.6636 6.5321 15.0214 7.71208 15.0213 8.91914C15.0194 10.537 14.3759 12.088 13.2319 13.2319C12.088 14.3759 10.537 15.0194 8.91914 15.0213Z" fill="#A0A0A0"/>
</svg>
