<svg width="19" height="13" viewBox="0 0 19 13" fill="none" xmlns="http://www.w3.org/2000/svg">
<path d="M0 1.13184C0 1.82711 0.474235 2.27985 1.16264 2.27985L17.8374 2.27985C18.5105 2.27985 19 1.82711 19 1.13184C19 0.452736 18.5105 0 17.8374 0L1.16264 0C0.474235 0 0 0.452736 0 1.13184Z" fill="#4B4C8C"/>
<path d="M2.26409 6.48383C2.26409 7.1791 2.73833 7.63184 3.42673 7.63184L15.5733 7.63184C16.2464 7.63184 16.7206 7.1791 16.7206 6.48383C16.7206 5.80473 16.2464 5.35199 15.5733 5.35199L3.42673 5.35199C2.73833 5.35199 2.26409 5.80473 2.26409 6.48383Z" fill="#4B4C8C"/>
<path d="M4.63527 11.852C4.63527 12.5311 5.1095 13 5.78261 13L13.2021 13C13.8752 13 14.3647 12.5311 14.3647 11.852C14.3647 11.1729 13.8752 10.7201 13.2021 10.7201L5.78261 10.7201C5.1095 10.7201 4.63527 11.1729 4.63527 11.852Z" fill="#4B4C8C"/>
</svg>
